<svg id="SvgjsSvg1001" width="280" height="341.55468940734863" xmlns="http://www.w3.org/2000/svg" version="1.1" xmlns:xlink="http://www.w3.org/1999/xlink" xmlns:svgjs="http://svgjs.com/svgjs"><defs id="SvgjsDefs1002"><marker id="SvgjsMarker1040" markerWidth="14" markerHeight="10" refX="10" refY="5" viewBox="0 0 14 10" orient="auto" markerUnits="userSpaceOnUse" stroke-dasharray="0,0"><path id="SvgjsPath1041" d="M0,0 L14,5 L0,10 L0,0" fill="#323232" stroke="#323232" stroke-width="1"></path></marker><marker id="SvgjsMarker1044" markerWidth="14" markerHeight="10" refX="10" refY="5" viewBox="0 0 14 10" orient="auto" markerUnits="userSpaceOnUse" stroke-dasharray="0,0"><path id="SvgjsPath1045" d="M0,0 L14,5 L0,10 L0,0" fill="#323232" stroke="#323232" stroke-width="1"></path></marker><marker id="SvgjsMarker1048" markerWidth="14" markerHeight="10" refX="10" refY="5" viewBox="0 0 14 10" orient="auto" markerUnits="userSpaceOnUse" stroke-dasharray="0,0"><path id="SvgjsPath1049" d="M0,0 L14,5 L0,10 L0,0" fill="#323232" stroke="#323232" stroke-width="1"></path></marker><marker id="SvgjsMarker1052" markerWidth="14" markerHeight="10" refX="10" refY="5" viewBox="0 0 14 10" orient="auto" markerUnits="userSpaceOnUse" stroke-dasharray="0,0"><path id="SvgjsPath1053" d="M0,0 L14,5 L0,10 L0,0" fill="#323232" stroke="#323232" stroke-width="1"></path></marker></defs><g id="SvgjsG1008" transform="translate(85.00624084472656,66.55937480926514)"><path id="SvgjsPath1009" d="M 0 25C 0 -8.333333333333334 50 -8.333333333333334 50 25C 50 58.333333333333336 0 58.333333333333336 0 25Z" stroke="rgba(33,41,48,1)" stroke-width="2" fill-opacity="1" fill="#dbf5f5"></path><g id="SvgjsG1010"><text id="SvgjsText1011" font-family="微软雅黑" text-anchor="middle" font-size="30px" width="30px" fill="#323232" font-weight="400" align="middle" lineHeight="125%" anchor="middle" family="微软雅黑" size="30px" weight="400" font-style="" opacity="1" y="-0.75" transform="rotate(0)"><tspan id="SvgjsTspan1012" dy="37" x="25"><tspan id="SvgjsTspan1013" style="text-decoration:;">1</tspan></tspan></text></g></g><g id="SvgjsG1014" transform="translate(25.006240844726562,166.55937480926514)"><path id="SvgjsPath1015" d="M 0 25C 0 -8.333333333333334 50 -8.333333333333334 50 25C 50 58.333333333333336 0 58.333333333333336 0 25Z" stroke="rgba(33,41,48,1)" stroke-width="2" fill-opacity="1" fill="#b7eaeb"></path><g id="SvgjsG1016"><text id="SvgjsText1017" font-family="微软雅黑" text-anchor="middle" font-size="30px" width="30px" fill="#323232" font-weight="400" align="middle" lineHeight="125%" anchor="middle" family="微软雅黑" size="30px" weight="400" font-style="" opacity="1" y="-0.75" transform="rotate(0)"><tspan id="SvgjsTspan1018" dy="37" x="25"><tspan id="SvgjsTspan1019" style="text-decoration:;">2</tspan></tspan></text></g></g><g id="SvgjsG1020" transform="translate(145.00624084472656,166.55937480926514)"><path id="SvgjsPath1021" d="M 0 25C 0 -8.333333333333334 50 -8.333333333333334 50 25C 50 58.333333333333336 0 58.333333333333336 0 25Z" stroke="rgba(33,41,48,1)" stroke-width="2" fill-opacity="1" fill="#b7eaeb"></path><g id="SvgjsG1022"><text id="SvgjsText1023" font-family="微软雅黑" text-anchor="middle" font-size="30px" width="30px" fill="#323232" font-weight="400" align="middle" lineHeight="125%" anchor="middle" family="微软雅黑" size="30px" weight="400" font-style="" opacity="1" y="-0.75" transform="rotate(0)"><tspan id="SvgjsTspan1024" dy="37" x="25"><tspan id="SvgjsTspan1025" style="text-decoration:;">3</tspan></tspan></text></g></g><g id="SvgjsG1026" transform="translate(85.00624084472656,266.55937480926514)"><path id="SvgjsPath1027" d="M 0 25C 0 -8.333333333333334 50 -8.333333333333334 50 25C 50 58.333333333333336 0 58.333333333333336 0 25Z" stroke="rgba(33,41,48,1)" stroke-width="2" fill-opacity="1" fill="#94e0e1"></path><g id="SvgjsG1028"><text id="SvgjsText1029" font-family="微软雅黑" text-anchor="middle" font-size="30px" width="30px" fill="#323232" font-weight="400" align="middle" lineHeight="125%" anchor="middle" family="微软雅黑" size="30px" weight="400" font-style="" opacity="1" y="-0.75" transform="rotate(0)"><tspan id="SvgjsTspan1030" dy="37" x="25"><tspan id="SvgjsTspan1031" style="text-decoration:;">4</tspan></tspan></text></g></g><g id="SvgjsG1032" transform="translate(205.00624084472656,266.55937480926514)"><path id="SvgjsPath1033" d="M 0 25C 0 -8.333333333333334 50 -8.333333333333334 50 25C 50 58.333333333333336 0 58.333333333333336 0 25Z" stroke="rgba(33,41,48,1)" stroke-width="2" fill-opacity="1" fill="#94e0e1"></path><g id="SvgjsG1034"><text id="SvgjsText1035" font-family="微软雅黑" text-anchor="middle" font-size="30px" width="30px" fill="#323232" font-weight="400" align="middle" lineHeight="125%" anchor="middle" family="微软雅黑" size="30px" weight="400" font-style="" opacity="1" y="-0.75" transform="rotate(0)"><tspan id="SvgjsTspan1036" dy="37" x="25"><tspan id="SvgjsTspan1037" style="text-decoration:;">5</tspan></tspan></text></g></g><g id="SvgjsG1038"><path id="SvgjsPath1039" d="M97.97529850105502 113.58647508641036L65.9147326958805 167.6808980879639" stroke="#323232" stroke-width="2" fill="none" marker-end="url(#SvgjsMarker1040)"></path></g><g id="SvgjsG1042"><path id="SvgjsPath1043" d="M122.43201582433699 114.17333000279001L155.0135164291969 166.8872000853218" stroke="#323232" stroke-width="2" fill="none" marker-end="url(#SvgjsMarker1044)"></path></g><g id="SvgjsG1046"><path id="SvgjsPath1047" d="M155.63513281143491 213.26308083715637L124.52510561032102 267.058598237447" stroke="#323232" stroke-width="2" fill="none" marker-end="url(#SvgjsMarker1048)"></path></g><g id="SvgjsG1050"><path id="SvgjsPath1051" d="M184.98358084330835 212.94770220433026L216.22306775874722 266.493139910972" stroke="#323232" stroke-width="2" fill="none" marker-end="url(#SvgjsMarker1052)"></path></g><g id="SvgjsG1054" transform="translate(60.00624084472656,25.006437582128186)"><path id="SvgjsPath1055" d="M 0 0L 100 0L 100 40L 0 40Z" stroke="none" fill="none"></path><g id="SvgjsG1056"><text id="SvgjsText1057" font-family="微软雅黑" text-anchor="middle" font-size="24px" width="100px" fill="#ff0c08" font-weight="400" align="middle" lineHeight="125%" anchor="middle" family="微软雅黑" size="24px" weight="400" font-style="" opacity="1" y="-1" transform="rotate(0)"><tspan id="SvgjsTspan1058" dy="30" x="50"><tspan id="SvgjsTspan1059" style="text-decoration:;">root</tspan></tspan></text></g></g></svg>